<?xml version="1.0" encoding="utf-8"?>
<!-- Generator: Adobe Illustrator 23.0.1, SVG Export Plug-In . SVG Version: 6.00 Build 0)  -->
<svg version="1.1" id="Layer_1" xmlns="http://www.w3.org/2000/svg" xmlns:xlink="http://www.w3.org/1999/xlink" x="0px" y="0px"
	 viewBox="0 0 512 512" style="enable-background:new 0 0 512 512;" xml:space="preserve">
<style type="text/css">
	.st0{fill:#46C7F2;}
	.st1{fill:#00A0D1;}
	.st2{fill:#D8E0E9;}
	.st3{fill:#4F6873;}
	.st4{fill:#37B98F;}
	.st5{fill:#FFFF72;}
	.st6{fill:#F8A282;}
	.st7{fill:#DFF3FD;}
</style>
<title>kit_logo_full</title>
<g id="ba399912-3c43-4b0a-9812-c6c355d85bd4">
	<rect y="0" class="st0" width="512" height="512"/>
	<path class="st0" d="M512,256c0,141.4-114.6,256-256,256S0,397.4,0,256S114.6,0,256,0S512,114.6,512,256z"/>
	<path class="st1" d="M511.8,209.6L407.3,105.1L286.8,225.5l-82.1-70.3L76.1,201.5l139.4,117l-73.8,20.2l-36.8,68.5l104.5,104.5
		c9.8,2,302.6,0.3,302.6,0.3L511.8,209.6z"/>
	<path class="st1" d="M429.6,572.4"/>
	<path class="st2" d="M246,266.1c-4.8,29.9-30.6,51.9-60.9,51.9c-44,0-80.3,36.4-80.3,80.3v8.9h17.7v-8.9
		c0-34.2,28.4-62.6,62.6-62.6c44-0.1,79.6-35.7,79.5-79.7L246,266.1z"/>
	<path class="st3" d="M406.2,245.6l-160.5,20.6l44.5-61l46.1-29.6l40.7,25.4L406.2,245.6z"/>
	<path class="st4" d="M336.3,175.7l-90.6,90.6l20.6-160.5l58.7,25.6L336.3,175.7z"/>
	<path class="st5" d="M407.1,104.8l-29.5,47.2l-41.3,23.6l-69.9-69.9l0.1-1L407.1,104.8z"/>
	<path class="st6" d="M336.3,175.7l69.9,69.9l1-0.1V104.8L336.3,175.7z"/>
</g>
<g id="b9d78aaa-190c-4139-a8b8-c6f7b58c53fb">
	<path class="st7" d="M207.9,201.5c11.2-23.5,1.3-51.7-22.3-63c-21.6-10.3-47.5-2.9-60.3,17.4c-17.9-8.7-39.5-1.2-48.2,16.7
		c-4.4,9.1-4.8,19.5-1.1,28.9H207.9z"/>
</g>
</svg>
